<?xml version="1.0" encoding="utf-8"?>
<!-- Generator: Adobe Illustrator 26.0.3, SVG Export Plug-In . SVG Version: 6.00 Build 0)  -->
<svg version="1.1" xmlns="http://www.w3.org/2000/svg" xmlns:xlink="http://www.w3.org/1999/xlink" x="0px" y="0px"
	 viewBox="0 0 900 600" style="enable-background:new 0 0 900 600;" xml:space="preserve">
<style type="text/css">
	.st0{fill:#F9EADA;}
	.st1{fill:#FFFFFF;}
	.st2{fill:#5E3B3B;}
	.st3{fill:#F0606C;}
	.st4{fill:#E14E4E;}
	.st5{fill:#FF7182;}
	.st6{fill:#17A37C;}
	.st7{fill:#57D0AF;}
	.st8{fill:#FF9E7E;}
	.st9{fill:#16916B;}
	.st10{fill:#503D39;}
	.st11{fill:#FFB486;}
	.st12{fill:#75A1E0;}
	.st13{fill:#587DCB;}
	.st14{fill:#FFFCFF;}
	.st15{fill:#9EBEE3;}
</style>
<g id="Layer_2">
</g>
<g id="Layer_1">
	<g>
		<g>
			<path class="st0" d="M181.44,517.7c-0.26-0.41-26.11-41.86-44.66-97.81c-10.9-32.88-17.18-64.26-18.68-93.28
				c-1.88-36.33,3.78-69.04,16.82-97.22c30.93-66.85,103.13-108.9,214.58-124.97l0.28,1.91c-110.76,15.97-182.46,57.65-213.1,123.87
				c-29.24,63.2-15.09,137.69,1.93,189.05c18.47,55.74,44.21,97.02,44.47,97.43L181.44,517.7z"/>
		</g>
		<g>
			<path class="st0" d="M812.63,474.89l-1.85-0.55c32.01-108.09,0.5-135.63-29.97-162.27c-14.54-12.7-29.57-25.84-36.97-47.53
				c-3.57-10.44-3.03-22.8-2.41-37.1c0.5-11.58,1.07-24.71-0.5-39.07c-4.71-43.04-29.88-71.4-74.8-84.3
				c-33.62-9.65-66.3-6.52-66.62-6.49l-0.19-1.92c0.33-0.03,33.33-3.21,67.3,6.54c20,5.74,36.44,14.76,48.85,26.82
				c15.53,15.1,24.75,34.99,27.39,59.14c1.59,14.51,1.02,27.71,0.51,39.36c-0.61,14.11-1.14,26.29,2.31,36.39
				c7.24,21.2,21.41,33.59,36.42,46.7C813,337.65,844.99,365.61,812.63,474.89z"/>
		</g>
		<g>
			<g>
				<g>
					<path class="st0" d="M168.98,515.39h565.51c0,0,100.13-64.27,69.86-149.35c-16.24-45.65-62.33-52.47-76.18-86.51
						c-19.54-48.06,15-96.01-36.11-145.1c-68.68-65.96-244.44-58.71-341.41-35.17C154.57,146.85,73.41,333.01,168.98,515.39z"/>
				</g>
			</g>
		</g>
		<g>
			<g>
				<g>
					<g>
						<g>
							<g>
								<rect x="194.11" y="217.16" class="st1" width="36.61" height="1.99"/>
							</g>
						</g>
					</g>
				</g>
			</g>
			<g>
				<g>
					<g>
						<g>
							<g>
								<rect x="227.67" y="200.64" class="st1" width="36.61" height="1.99"/>
							</g>
						</g>
					</g>
				</g>
			</g>
		</g>
		<g>
			<g>
				<g>
					<g>
						<g>
							<g>
								<g>
									<path class="st2" d="M98.75,421.63c0,0-4.19-11.1-2.75-18.96l6.73,0.47c0,0-3.19,10.6-1.46,18.4L98.75,421.63z"/>
								</g>
							</g>
						</g>
					</g>
				</g>
				<g>
					<g>
						<g>
							<g>
								<g>
									<path class="st3" d="M168.61,457.95c-0.72,29.31-18.67,51.79-40.1,50.22c-2.58-0.19-5.09-0.72-7.51-1.55
										c-1.75,1.87-3.72,3.52-5.91,4.89c-18.19,11.42-44.59-0.03-58.95-25.58c-14.37-25.55-11.27-55.52,6.92-66.94
										c10.73-6.74,24.32-5.51,36.6,1.87c7.4-12.28,18.83-19.72,31.46-18.8C152.55,403.63,169.33,428.65,168.61,457.95z"/>
								</g>
							</g>
						</g>
					</g>
				</g>
				<g>
					<g>
						<g>
							<g>
								<g>
									<path class="st4" d="M163.79,481.75c-6.84,16.72-20.2,27.52-35.28,26.42c-2.58-0.19-5.09-0.72-7.51-1.54
										c-1.75,1.87-3.72,3.51-5.91,4.88c-18.18,11.42-44.58-0.02-58.95-25.58c-12.07-21.46-11.81-46.04-0.64-60.12
										c-4.95,14.08-3.05,32.75,6.38,49.52c14.37,25.55,40.77,37.01,58.95,25.58c2.19-1.38,4.16-3.02,5.91-4.89
										c2.42,0.84,4.93,1.37,7.51,1.55C145.84,498.42,156.4,492.24,163.79,481.75z"/>
								</g>
							</g>
						</g>
					</g>
				</g>
				<g>
					<g>
						<g>
							<g>
								<g>
									<path class="st2" d="M140.35,501.8l-1.21-2.28c6.82-3.61,12.64-9.89,16.84-18.14l2.3,1.17
										C153.84,491.28,147.64,497.94,140.35,501.8z"/>
								</g>
							</g>
						</g>
					</g>
				</g>
				<g>
					<g>
						<g>
							<g>
								<g>
									<g>
										<path class="st2" d="M58.22,437.65l-2.37-1.03c2.51-5.76,6.4-10.42,11.25-13.46l1.37,2.19
											C64.01,428.15,60.56,432.29,58.22,437.65z"/>
									</g>
								</g>
							</g>
						</g>
					</g>
					<g>
						<g>
							<g>
								<g>
									<g>
										<path class="st2" d="M60.58,483.75c-6.3-11.21-9.08-23.7-7.82-35.17l2.56,0.28c-1.2,10.94,1.46,22.88,7.5,33.62
											L60.58,483.75z"/>
									</g>
								</g>
							</g>
						</g>
					</g>
				</g>
			</g>
			<g>
				<g>
					<g>
						<g>
							<g>
								<path class="st2" d="M154.18,416.68c-16.49-21.21-36.29-10.76-37.12-10.31l-1.24-2.26c0.22-0.12,22.54-11.99,40.4,10.99
									L154.18,416.68z"/>
							</g>
						</g>
					</g>
				</g>
			</g>
			<g>
				<g>
					<g>
						<g>
							<g>
								<path class="st5" d="M149.07,429.26c-2.7,4.75-10.55,5.39-17.52,1.43c-6.97-3.96-10.43-11.03-7.73-15.78
									c2.7-4.75,10.55-5.39,17.52-1.43C148.31,417.44,151.77,424.51,149.07,429.26z"/>
							</g>
						</g>
					</g>
				</g>
			</g>
		</g>
		<g>
			<g>
				<g>
					<g>
						<g>
							<g>
								<polygon class="st1" points="490.62,116.2 454.01,116.2 453.94,114.27 490.62,114.27 								"/>
							</g>
						</g>
					</g>
				</g>
			</g>
		</g>
		<g>
			<g>
				<g>
					<g>
						<g>
							<g>
								<rect x="173.24" y="424.81" class="st1" width="36.61" height="1.99"/>
							</g>
						</g>
					</g>
				</g>
			</g>
		</g>
		<g>
			<g>
				<g>
					<g>
						<g>
							<g>
								<rect x="565.32" y="158.14" class="st1" width="36.61" height="1.99"/>
							</g>
						</g>
					</g>
				</g>
			</g>
			<g>
				<g>
					<g>
						<g>
							<g>
								<rect x="598.88" y="141.61" class="st1" width="36.61" height="1.99"/>
							</g>
						</g>
					</g>
				</g>
			</g>
			<g>
				<g>
					<g>
						<g>
							<g>
								<rect x="625.07" y="158.14" class="st1" width="36.61" height="1.99"/>
							</g>
						</g>
					</g>
				</g>
			</g>
		</g>
		<g>
			<g>
				<g>
					<g>
						<g>
							<g>
								<g>
									<g>
										<path class="st6" d="M566.06,301.96c-5.26,10.51-10.44,20.11-10.44,20.11s-19.38-12.38-39.04-21.65
											c-9.01-4.25-14.41-10.08-12.81-16.9c1.84-7.84,11.38-7.94,11.38-7.94s-9.02-4.53-13.51-5.95
											c-7.53-2.38-20.65-10.79-18.19-21.18c2.98-12.61,18.4-8.86,18.4-8.86s-6.74-7.35-11.27-11.49
											c-7.9-7.23-13.79-19.56-6.81-29.86c8.41-12.4,19.54-10.77,28.37-6.92c6.45,2.81,17.22,11.94,23.02,27.18
											c0,0,7.72-9.35,15.48-5.35c7.76,4,17.66,18.44,6.75,48.46c0,0,13.37-6.79,17.84,2.74
											C580.1,274.72,572.32,289.48,566.06,301.96z"/>
									</g>
								</g>
							</g>
						</g>
					</g>
					<g>
						<g>
							<g>
								<g>
									<g>
										<path class="st2" d="M555.36,323c-0.14-0.72-14.26-72.91-54.18-117.61l1.19-1.06c40.22,45.04,54.41,117.65,54.55,118.38
											L555.36,323z"/>
									</g>
								</g>
							</g>
						</g>
					</g>
					<g>
						<g>
							<g>
								<g>
									<g>
										<path class="st2" d="M490.04,228.69c-8.56-7.84-14.03-20.43-6.93-30.89c6.95-10.24,16.82-12.66,29.35-7.2l-0.64,1.46
											c-11.89-5.18-20.85-3.02-27.4,6.63c-6.56,9.68-1.37,21.45,6.69,28.83L490.04,228.69z"/>
									</g>
								</g>
							</g>
						</g>
					</g>
					<g>
						<g>
							<g>
								<g>
									<g>
										<path class="st2" d="M525.07,305.51c-3.05-1.57-6.03-3.04-8.83-4.36c-10.12-4.77-14.82-11.09-13.25-17.8
											c1.31-5.6,6.28-7.53,9.44-8.2c-2.97-1.43-8.06-3.8-11.03-4.75l0.48-1.52c4.5,1.42,13.26,5.81,13.63,6l2.92,1.47
											l-3.27,0.04c-0.36,0-8.94,0.19-10.62,7.32c-1.87,7.97,6.95,13.44,12.37,16c2.82,1.33,5.81,2.8,8.88,4.39L525.07,305.51z"
											/>
									</g>
								</g>
							</g>
						</g>
					</g>
					<g>
						<g>
							<g>
								<g>
									<g>
										<path class="st2" d="M566.86,301.72l-1.42-0.71l0.67-1.34c6.1-12.15,13.02-25.93,8.5-35.58l1.44-0.68
											c4.85,10.35-2.25,24.49-8.52,36.97L566.86,301.72z"/>
									</g>
								</g>
							</g>
						</g>
					</g>
					<g>
						<g>
							<g>
								<g>
									<g>
										<path class="st2" d="M535.78,219.01l-1.23-1.01c0.33-0.4,8.23-9.8,16.46-5.56c2.83,1.46,5.48,4.01,7.47,7.18l-1.35,0.85
											c-1.84-2.93-4.27-5.28-6.85-6.61C543.19,210.2,535.85,218.92,535.78,219.01z"/>
									</g>
								</g>
							</g>
						</g>
					</g>
					<g>
						<g>
							<g>
								<g>
									<g>
										<path class="st2" d="M554.7,259.27l-1.54-0.4c1.9-7.41,2.68-14.55,2.3-21.22l1.59-0.09
											C557.44,244.4,556.65,251.7,554.7,259.27z"/>
									</g>
								</g>
							</g>
						</g>
					</g>
					<g>
						<g>
							<g>
								<g>
									<g>
										<path class="st2" d="M554.47,229.96c-1.2-5.71-2.98-8.77-3-8.8l1.37-0.81c0.08,0.13,1.93,3.29,3.19,9.28L554.47,229.96z"
											/>
									</g>
								</g>
							</g>
						</g>
					</g>
				</g>
				<g>
					<g>
						<g>
							<g>
								<g>
									<g>
										<path class="st7" d="M586.51,335.7c-8.99,4.82-17.47,9.04-17.47,9.04s-7.55-18.48-16.86-34.89
											c-4.27-7.52-5.18-14.36-0.63-18.4c5.23-4.64,12.04,0.07,12.04,0.07s-4.13-7.73-6.61-10.98
											c-4.15-5.45-9.25-17.99-2.31-24.13c8.42-7.46,17.49,2.92,17.49,2.92s-1.11-8.59-2.25-13.79
											c-1.99-9.08,0-20.78,10.11-24.59c12.17-4.59,19.25,2.14,23.59,9.29c3.17,5.22,6.24,17.09,2.73,30.8
											c0,0,10.16-2.77,13.66,3.95c3.5,6.72,3.3,21.92-19.46,37.76c0,0,12.89,1.87,11.29,10.87
											C610.09,323.4,597.19,329.98,586.51,335.7z"/>
									</g>
								</g>
							</g>
						</g>
					</g>
					<g>
						<g>
							<g>
								<g>
									<g>
										<path class="st2" d="M569.74,345.89l-1.45-0.66c0.26-0.58,26.35-58.82,20.4-110.48l1.58-0.18
											C596.28,286.67,570.01,345.3,569.74,345.89z"/>
									</g>
								</g>
							</g>
						</g>
					</g>
					<g>
						<g>
							<g>
								<g>
									<g>
										<path class="st2" d="M569.14,245.72c-2.16-9.89,0.28-21.61,10.6-25.5c10.1-3.81,18.36-0.57,24.55,9.62l-1.36,0.83
											c-5.81-9.58-13.21-12.51-22.63-8.96c-9.44,3.56-11.63,14.45-9.61,23.67L569.14,245.72z"/>
									</g>
								</g>
							</g>
						</g>
					</g>
					<g>
						<g>
							<g>
								<g>
									<g>
										<path class="st2" d="M555.56,317.76c-1.37-2.63-2.75-5.16-4.08-7.51c-4.82-8.49-4.99-15.38-0.47-19.39
											c3.64-3.23,7.99-2.3,10.63-1.23c-1.41-2.53-3.71-6.53-5.3-8.61l1.27-0.96c2.49,3.27,6.5,10.77,6.67,11.09l1.54,2.88
											l-2.69-1.85c-0.26-0.18-6.38-4.29-11.06-0.13c-5.26,4.67-1.76,12.91,0.79,17.41c1.34,2.36,2.72,4.91,4.11,7.56
											L555.56,317.76z"/>
									</g>
								</g>
							</g>
						</g>
					</g>
					<g>
						<g>
							<g>
								<g>
									<g>
										<path class="st2" d="M587.17,336.02l-0.75-1.4l1.15-0.61c10.39-5.56,22.16-11.85,23.78-20.91l1.57,0.28
											c-1.75,9.82-13.88,16.31-24.59,22.04L587.17,336.02z"/>
									</g>
								</g>
							</g>
						</g>
					</g>
					<g>
						<g>
							<g>
								<g>
									<g>
										<path class="st2" d="M620.84,273.42c0.16-2.98-0.38-5.85-1.54-8.06c-3.16-6.06-12.65-3.57-12.74-3.55l-0.42-1.54
											c0.44-0.12,10.82-2.86,14.57,4.35c0.91,1.74,1.94,4.7,1.72,8.88L620.84,273.42z"/>
									</g>
								</g>
							</g>
						</g>
					</g>
					<g>
						<g>
							<g>
								<g>
									<g>
										<path class="st2" d="M599.88,299.82l-1.03-1.21c5.05-4.3,9.16-8.96,12.23-13.87l1.35,0.84
											C609.27,290.62,605.05,295.42,599.88,299.82z"/>
									</g>
								</g>
							</g>
						</g>
					</g>
					<g>
						<g>
							<g>
								<g>
									<g>
										<path class="st2" d="M615.67,279.42l-1.46-0.63c2-4.63,2.26-7.68,2.27-7.71l1.59,0.12
											C618.06,271.34,617.79,274.52,615.67,279.42z"/>
									</g>
								</g>
							</g>
						</g>
					</g>
				</g>
			</g>
			<g>
				<g>
					<g>
						<g>
							<g>
								<path class="st2" d="M529.51,200.42c-12.82-18.01-28.72-17.89-28.87-17.89l-0.03-1.59c0.68-0.01,16.9-0.14,30.2,18.55
									L529.51,200.42z"/>
							</g>
						</g>
					</g>
				</g>
			</g>
		</g>
		<g>
			<path class="st2" d="M315.38,150.87c0,0-6.65-21.01,13.31-20.45l1.61,12.33L315.38,150.87z"/>
		</g>
		<g>
			<g>
				<g>
					<g>
						<g>
							<g>
								<rect x="162.9" y="515.43" class="st2" width="84.06" height="2.14"/>
							</g>
						</g>
					</g>
				</g>
			</g>
			<g>
				<g>
					<g>
						<g>
							<g>
								<rect x="414.98" y="515.43" class="st2" width="109.43" height="2.14"/>
							</g>
						</g>
					</g>
				</g>
			</g>
			<g>
				<g>
					<g>
						<g>
							<g>
								<polygon class="st1" points="445.35,439.6 444.4,439.6 423.37,372.03 425.83,371.27 446.57,437.93 445.35,438.31 								
									"/>
							</g>
						</g>
					</g>
				</g>
			</g>
			<g>
				<g>
					<g>
						<g>
							<g>
								
									<rect x="408.88" y="302.38" transform="matrix(0.9548 -0.2972 0.2972 0.9548 -78.1252 136.5783)" class="st1" width="2.57" height="45.75"/>
							</g>
						</g>
					</g>
				</g>
			</g>
			<g>
				<g>
					<g>
						<g>
							<g>
								<path class="st4" d="M692.22,515.88H550.75c0-17.44-5.61-33.7-15.13-46.99l115.11-81.82
									C676.81,423.54,692.22,468.05,692.22,515.88z"/>
							</g>
						</g>
					</g>
				</g>
			</g>
			<g>
				<g>
					<g>
						<g>
							<g>
								<path class="st3" d="M650.73,387.07l-115.11,81.82c-9.77-13.68-23.66-24.24-39.78-29.83l13.16-38.37l32.71-95.38
									C585.89,320.65,623.95,349.61,650.73,387.07z"/>
							</g>
						</g>
					</g>
				</g>
			</g>
			<g>
				<g>
					<g>
						<g>
							<g>
								<path class="st8" d="M541.7,305.32l-32.71,95.38l-13.16,38.37c-8.27-2.87-17.15-4.44-26.34-4.44
									c-8.39,0-16.5,1.29-24.14,3.69l-20.75-66.66l-7.64-24.56l-13.6-43.68c20.93-6.66,43.15-10.26,66.13-10.26
									C494.71,293.15,519.02,297.44,541.7,305.32z"/>
							</g>
						</g>
					</g>
				</g>
			</g>
			<g>
				<g>
					<g>
						<g>
							<g>
								<path class="st7" d="M246.77,515.88c0.25-47.64,15.78-92.11,41.88-128.59L403.28,469c-0.01,0.02-0.02,0.02-0.02,0.04
									c-9.37,13.16-14.93,29.19-15.02,46.41L246.77,515.88z"/>
							</g>
						</g>
					</g>
				</g>
			</g>
			<g>
				<g>
					<g>
						<g>
							<g>
								
									<rect x="344.69" y="357.74" transform="matrix(0.5801 -0.8145 0.8145 0.5801 -203.4541 461.5681)" class="st1" width="2.57" height="140.77"/>
							</g>
						</g>
					</g>
				</g>
			</g>
			<g>
				<g>
					<g>
						<g>
							<g>
								<path class="st6" d="M451.3,436.7c-2.01,0.46-3.99,1-5.94,1.62h-0.01c-17.1,5.4-31.82,16.32-42.04,30.64
									c-0.01,0.02-0.02,0.02-0.03,0.03c-0.01,0.02-0.02,0.03-0.03,0.04c-0.93,1.29-1.81,2.62-2.65,3.97l-120.1-85.59
									c30.91-43.19,75.25-76.24,126.63-92.59l15.01,48.22l8.43,27.1L451.3,436.7z"/>
							</g>
						</g>
					</g>
				</g>
			</g>
			<g>
				<g>
					<g>
						<g>
							<g>
								<path class="st9" d="M451.31,436.7c-2.01,0.46-3.99,1-5.95,1.62h-0.01c-17.1,5.4-31.82,16.32-42.04,30.64
									c-0.01,0.02-0.02,0.02-0.03,0.03c-0.01,0.02-0.02,0.03-0.03,0.04c-0.93,1.29-1.81,2.62-2.65,3.97l-120.1-85.59L451.31,436.7
									z"/>
							</g>
						</g>
					</g>
				</g>
			</g>
			<g>
				<g>
					<g>
						<g>
							<g>
								
									<rect x="448.08" y="370.9" transform="matrix(0.3242 -0.946 0.946 0.3242 -1.5124 742.2622)" class="st1" width="141.39" height="2.57"/>
							</g>
						</g>
					</g>
				</g>
			</g>
			<g>
				<g>
					<g>
						<g>
							<g>
								
									<rect x="522.56" y="426.7" transform="matrix(0.8151 -0.5794 0.5794 0.8151 -138.2617 422.825)" class="st1" width="141.22" height="2.57"/>
							</g>
						</g>
					</g>
				</g>
			</g>
			<g>
				<g>
					<g>
						<g>
							<g>
								<path class="st2" d="M400.98,474.84l-122.26-87.13l0.75-1.05c31.41-43.89,76.61-76.94,127.29-93.07l1.22-0.39l11.08,34.53
									l-2.45,0.79l-10.3-32.09c-49.25,15.97-93.21,48.11-124.01,90.68l117.94,84.06c0.63-0.97,1.27-1.91,1.91-2.81l0.15-0.21
									c10.48-14.65,25.62-25.68,42.66-31.05l0.2-0.06c1.48-0.47,3-0.89,4.51-1.27l-24.64-80.16l2.46-0.75l25.44,82.78l-1.35,0.31
									c-1.96,0.45-3.93,0.99-5.85,1.59l-0.2,0.06c-16.42,5.23-31.02,15.88-41.14,30.02l-0.11,0.16c-0.88,1.23-1.75,2.54-2.6,3.9
									L400.98,474.84z M402.39,468.07c-0.01,0.01-0.01,0.01-0.02,0.02L402.39,468.07z"/>
							</g>
						</g>
					</g>
				</g>
			</g>
			<g>
				<g>
					<g>
						<g>
							<g>
								<path class="st2" d="M246.09,517.57l0.01-1.08c0.21-38.78,10.67-77.14,30.28-110.93l1.85,1.07
									c-19.23,33.15-29.59,70.75-29.98,108.79l39.09-0.12l0.01,2.14L246.09,517.57z"/>
							</g>
						</g>
					</g>
				</g>
			</g>
			<g>
				<g>
					<g>
						<g>
							<g>
								
									<rect x="71.48" y="515.1" transform="matrix(1 -3.128487e-03 3.128487e-03 1 -1.6143 0.3322)" class="st2" width="67.79" height="2.14"/>
							</g>
						</g>
					</g>
				</g>
			</g>
			<g>
				<g>
					<g>
						<g>
							<g>
								<rect x="551.15" y="515.43" class="st2" width="42.29" height="2.14"/>
							</g>
						</g>
					</g>
				</g>
			</g>
			<g>
				<g>
					<g>
						<g>
							<g>
								<path class="st2" d="M542.45,304.92c26.23,9.11,50.77,23.3,72.05,41.41l-2.12,1c-20.91-17.64-44.95-31.48-70.63-40.39
									c-18.69-6.5-38.18-10.42-57.94-11.67l0.14-2.14C503.9,294.4,523.58,298.36,542.45,304.92z"/>
							</g>
							<g>
								<path class="st2" d="M693.69,516.5v1.07H627.5v-2.14h64.04c-0.11-21.86-3.42-43.3-9.78-63.83l2.05-0.63
									C690.34,472.03,693.69,494.05,693.69,516.5z"/>
							</g>
						</g>
					</g>
				</g>
			</g>
			<g>
				<g>
					<g>
						<g>
							<g>
								<path class="st2" d="M426.41,299.23l-0.43-2.1c9.51-1.95,19.25-3.27,28.95-3.93l0.15,2.14
									C445.47,296,435.83,297.31,426.41,299.23z"/>
							</g>
						</g>
					</g>
				</g>
			</g>
			<g>
				<g>
					<g>
						<g>
							<g>
								<path class="st10" d="M433.65,456.57h11.38c3.88,0,6.72,0.9,8.5,2.71c1.78,1.81,2.67,4.58,2.67,8.33v1.92
									c0,2.47-0.4,4.48-1.2,6.03c-0.8,1.55-2.02,2.67-3.67,3.36v0.14c3.75,1.28,5.62,4.62,5.62,10.01v4.11
									c0,3.7-0.97,6.52-2.91,8.46c-1.94,1.94-4.79,2.91-8.53,2.91h-11.86V456.57z M444.13,476.1c1.51,0,2.64-0.39,3.39-1.16
									c0.75-0.78,1.13-2.08,1.13-3.91v-2.67c0-1.74-0.31-2.99-0.93-3.77c-0.62-0.78-1.59-1.17-2.91-1.17h-3.63v12.68H444.13z
									 M445.5,497.68c1.32,0,2.31-0.35,2.95-1.06c0.64-0.71,0.96-1.93,0.96-3.67v-4.18c0-2.19-0.38-3.71-1.13-4.56
									c-0.75-0.84-2-1.27-3.74-1.27h-3.36v14.73H445.5z"/>
							</g>
						</g>
					</g>
				</g>
				<g>
					<g>
						<g>
							<g>
								<path class="st10" d="M461.33,456.57h10.76l4.8,34.33h0.14l4.8-34.33h10.76v47.97h-7.13v-36.32h-0.14l-5.48,36.32h-6.3
									l-5.48-36.32h-0.14v36.32h-6.58V456.57z"/>
							</g>
						</g>
					</g>
				</g>
				<g>
					<g>
						<g>
							<g>
								<path class="st10" d="M498.2,456.57h7.54v47.97h-7.54V456.57z"/>
							</g>
						</g>
					</g>
				</g>
			</g>
			<g>
				<g>
					<g>
						<g>
							<g>
								<g>
									<path class="st1" d="M330.29,372.17h4.73l3.67,14.36h0.07v-14.36h3.36v23.99h-3.87l-4.52-17.51h-0.07v17.51h-3.36V372.17z"
										/>
								</g>
							</g>
						</g>
					</g>
				</g>
				<g>
					<g>
						<g>
							<g>
								<g>
									<path class="st1" d="M346.12,394.92c-0.98-1.05-1.47-2.54-1.47-4.45v-12.61c0-1.92,0.49-3.4,1.47-4.45
										c0.98-1.05,2.4-1.58,4.25-1.58c1.85,0,3.27,0.53,4.25,1.58c0.98,1.05,1.47,2.54,1.47,4.45v12.61c0,1.92-0.49,3.4-1.47,4.45
										c-0.98,1.05-2.4,1.58-4.25,1.58C348.52,396.49,347.1,395.97,346.12,394.92z M352.32,390.7v-13.09
										c0-1.58-0.65-2.36-1.95-2.36c-1.3,0-1.95,0.79-1.95,2.36v13.09c0,1.58,0.65,2.36,1.95,2.36
										C351.67,393.07,352.32,392.28,352.32,390.7z"/>
								</g>
							</g>
						</g>
					</g>
				</g>
				<g>
					<g>
						<g>
							<g>
								<g>
									<path class="st1" d="M358.63,372.17h5.59c1.94,0,3.36,0.45,4.25,1.35c0.89,0.9,1.34,2.29,1.34,4.16v1.47
										c0,2.49-0.82,4.07-2.47,4.73v0.07c0.91,0.27,1.56,0.83,1.94,1.68c0.38,0.85,0.57,1.98,0.57,3.39v4.21
										c0,0.69,0.02,1.24,0.07,1.66c0.05,0.42,0.16,0.84,0.34,1.25h-3.84c-0.14-0.39-0.23-0.75-0.27-1.1
										c-0.05-0.34-0.07-0.96-0.07-1.85v-4.39c0-1.1-0.18-1.86-0.53-2.3c-0.35-0.43-0.97-0.65-1.83-0.65h-1.3v10.28h-3.77V372.17z
										 M363.77,382.44c0.75,0,1.32-0.19,1.7-0.58c0.38-0.39,0.57-1.04,0.57-1.95v-1.85c0-0.87-0.15-1.5-0.46-1.88
										c-0.31-0.39-0.79-0.58-1.46-0.58h-1.71v6.85H363.77z"/>
								</g>
							</g>
						</g>
					</g>
				</g>
				<g>
					<g>
						<g>
							<g>
								<g>
									<path class="st1" d="M372.44,372.17h5.38l2.4,17.17h0.07l2.4-17.17h5.38v23.99h-3.56v-18.16h-0.07l-2.74,18.16h-3.15
										l-2.74-18.16h-0.07v18.16h-3.29V372.17z"/>
								</g>
							</g>
						</g>
					</g>
				</g>
				<g>
					<g>
						<g>
							<g>
								<g>
									<path class="st1" d="M393.78,372.17h5.11l3.91,23.99h-3.77l-0.69-4.76v0.07h-4.28l-0.69,4.69h-3.49L393.78,372.17z
										 M397.89,388.2l-1.68-11.86h-0.07l-1.64,11.86H397.89z"/>
								</g>
							</g>
						</g>
					</g>
				</g>
				<g>
					<g>
						<g>
							<g>
								<g>
									<path class="st1" d="M404.61,372.17h3.77v20.56h6.2v3.43h-9.97V372.17z"/>
								</g>
							</g>
						</g>
					</g>
				</g>
			</g>
			<g>
				<g>
					<g>
						<g>
							<g>
								<g>
									<path class="st1" d="M546.24,382.01c-0.69-0.74-1.03-1.78-1.03-3.12v-8.83c0-1.34,0.34-2.38,1.03-3.12
										c0.69-0.74,1.68-1.1,2.97-1.1c1.3,0,2.29,0.37,2.97,1.1c0.69,0.74,1.03,1.77,1.03,3.12v8.83c0,1.34-0.34,2.38-1.03,3.12
										c-0.69,0.74-1.68,1.1-2.97,1.1C547.92,383.11,546.92,382.75,546.24,382.01z M550.58,379.06v-9.16
										c0-1.1-0.46-1.65-1.37-1.65c-0.91,0-1.37,0.55-1.37,1.65v9.16c0,1.1,0.46,1.65,1.37,1.65
										C550.12,380.72,550.58,380.16,550.58,379.06z"/>
								</g>
							</g>
						</g>
					</g>
				</g>
				<g>
					<g>
						<g>
							<g>
								<g>
									<path class="st1" d="M554.99,366.08h3.98c1.36,0,2.35,0.32,2.97,0.95c0.62,0.63,0.94,1.6,0.94,2.91v0.67
										c0,0.86-0.14,1.57-0.42,2.11c-0.28,0.54-0.71,0.94-1.28,1.18v0.05c1.31,0.45,1.97,1.62,1.97,3.5v1.44
										c0,1.3-0.34,2.28-1.02,2.96c-0.68,0.68-1.67,1.02-2.99,1.02h-4.15V366.08z M558.66,372.92c0.53,0,0.92-0.14,1.19-0.41
										c0.26-0.27,0.4-0.73,0.4-1.37v-0.94c0-0.61-0.11-1.05-0.32-1.32c-0.22-0.27-0.56-0.41-1.02-0.41h-1.27v4.44H558.66z
										 M559.14,380.48c0.46,0,0.81-0.12,1.03-0.37c0.22-0.25,0.34-0.68,0.34-1.28v-1.46c0-0.77-0.13-1.3-0.4-1.59
										c-0.26-0.3-0.7-0.44-1.31-0.44h-1.18v5.16H559.14z"/>
								</g>
							</g>
						</g>
					</g>
				</g>
				<g>
					<g>
						<g>
							<g>
								<g>
									<path class="st1" d="M564.68,366.08h7.2v2.4h-4.56v4.44h3.62v2.4h-3.62v5.16h4.56v2.4h-7.2V366.08z"/>
								</g>
							</g>
						</g>
					</g>
				</g>
				<g>
					<g>
						<g>
							<g>
								<g>
									<path class="st1" d="M573.96,382.02c-0.66-0.73-0.98-1.77-0.98-3.13v-0.96h2.49v1.15c0,1.09,0.46,1.63,1.37,1.63
										c0.45,0,0.79-0.13,1.02-0.4c0.23-0.26,0.35-0.69,0.35-1.28c0-0.7-0.16-1.32-0.48-1.86c-0.32-0.54-0.91-1.18-1.78-1.93
										c-1.09-0.96-1.85-1.83-2.28-2.6c-0.43-0.78-0.65-1.65-0.65-2.63c0-1.33,0.34-2.35,1.01-3.08c0.67-0.73,1.65-1.09,2.93-1.09
										c1.26,0,2.22,0.36,2.87,1.09c0.65,0.73,0.97,1.77,0.97,3.13v0.7h-2.49v-0.86c0-0.58-0.11-1-0.34-1.26
										c-0.22-0.26-0.55-0.4-0.98-0.4c-0.88,0-1.32,0.54-1.32,1.61c0,0.61,0.16,1.18,0.49,1.7c0.33,0.53,0.92,1.17,1.79,1.92
										c1.1,0.96,1.86,1.83,2.28,2.62c0.42,0.78,0.62,1.7,0.62,2.76c0,1.38-0.34,2.43-1.02,3.17c-0.68,0.74-1.67,1.1-2.96,1.1
										C575.59,383.11,574.62,382.75,573.96,382.02z"/>
								</g>
							</g>
						</g>
					</g>
				</g>
				<g>
					<g>
						<g>
							<g>
								<g>
									<path class="st1" d="M582.36,366.08H585v16.79h-2.64V366.08z"/>
								</g>
							</g>
						</g>
					</g>
				</g>
				<g>
					<g>
						<g>
							<g>
								<g>
									<path class="st1" d="M589.03,368.48h-2.76v-2.4h8.16v2.4h-2.76v14.39h-2.64V368.48z"/>
								</g>
							</g>
						</g>
					</g>
				</g>
				<g>
					<g>
						<g>
							<g>
								<g>
									<path class="st1" d="M598.21,375.73l-3.19-9.64h2.81l1.8,6.16h0.05l1.8-6.16h2.57l-3.19,9.64v7.15h-2.64V375.73z"/>
								</g>
							</g>
						</g>
					</g>
				</g>
			</g>
			<g>
				<g>
					<g>
						<g>
							<g>
								<g>
									<path class="st1" d="M587.18,446.05h7.2v2.4h-4.56v4.44h3.62v2.4h-3.62v5.16h4.56v2.4h-7.2V446.05z"/>
								</g>
							</g>
						</g>
					</g>
				</g>
				<g>
					<g>
						<g>
							<g>
								<g>
									<path class="st1" d="M598.26,454.25l-2.9-8.2h2.78l1.78,5.42h0.05l1.82-5.42h2.49l-2.9,8.2l3.05,8.59h-2.78l-1.92-5.85
										h-0.05l-1.97,5.85h-2.49L598.26,454.25z"/>
								</g>
							</g>
						</g>
					</g>
				</g>
				<g>
					<g>
						<g>
							<g>
								<g>
									<path class="st1" d="M607.74,448.44h-2.76v-2.4h8.16v2.4h-2.76v14.39h-2.64V448.44z"/>
								</g>
							</g>
						</g>
					</g>
				</g>
				<g>
					<g>
						<g>
							<g>
								<g>
									<path class="st1" d="M614.4,446.05h3.91c1.36,0,2.35,0.32,2.97,0.95c0.62,0.63,0.94,1.6,0.94,2.91v1.03
										c0,1.74-0.58,2.85-1.73,3.31v0.05c0.64,0.19,1.09,0.58,1.36,1.17c0.26,0.59,0.4,1.38,0.4,2.38v2.95
										c0,0.48,0.02,0.87,0.05,1.16c0.03,0.3,0.11,0.59,0.24,0.88h-2.69c-0.1-0.27-0.16-0.53-0.19-0.77
										c-0.03-0.24-0.05-0.67-0.05-1.3v-3.07c0-0.77-0.12-1.3-0.37-1.61c-0.25-0.3-0.68-0.46-1.28-0.46h-0.91v7.2h-2.64V446.05z
										 M618,453.24c0.53,0,0.92-0.14,1.19-0.41c0.26-0.27,0.4-0.73,0.4-1.37v-1.29c0-0.61-0.11-1.05-0.32-1.32
										c-0.22-0.27-0.56-0.41-1.02-0.41h-1.2v4.8H618z"/>
								</g>
							</g>
						</g>
					</g>
				</g>
				<g>
					<g>
						<g>
							<g>
								<g>
									<path class="st1" d="M624.07,446.05h7.2v2.4h-4.56v4.44h3.62v2.4h-3.62v5.16h4.56v2.4h-7.2V446.05z"/>
								</g>
							</g>
						</g>
					</g>
				</g>
				<g>
					<g>
						<g>
							<g>
								<g>
									<path class="st1" d="M632.78,446.05h3.77l1.68,12.02h0.05l1.68-12.02h3.77v16.79h-2.49v-12.71h-0.05l-1.92,12.71h-2.21
										l-1.92-12.71h-0.05v12.71h-2.3V446.05z"/>
								</g>
							</g>
						</g>
					</g>
				</g>
				<g>
					<g>
						<g>
							<g>
								<g>
									<path class="st1" d="M645.68,446.05h7.2v2.4h-4.56v4.44h3.62v2.4h-3.62v5.16h4.56v2.4h-7.2V446.05z"/>
								</g>
							</g>
						</g>
					</g>
				</g>
				<g>
					<g>
						<g>
							<g>
								<g>
									<path class="st1" d="M654.39,446.05h2.64v14.39h4.34v2.4h-6.98V446.05z"/>
								</g>
							</g>
						</g>
					</g>
				</g>
				<g>
					<g>
						<g>
							<g>
								<g>
									<path class="st1" d="M662.95,455.69l-3.19-9.64h2.81l1.8,6.16h0.05l1.8-6.16h2.57l-3.19,9.64v7.15h-2.64V455.69z"/>
								</g>
							</g>
						</g>
					</g>
				</g>
				<g>
					<g>
						<g>
							<g>
								<g>
									<path class="st1" d="M599.5,490.75c-0.69-0.74-1.03-1.78-1.03-3.12v-8.83c0-1.34,0.34-2.38,1.03-3.12
										c0.69-0.74,1.68-1.1,2.97-1.1c1.3,0,2.29,0.37,2.97,1.1c0.69,0.74,1.03,1.78,1.03,3.12v8.83c0,1.34-0.34,2.38-1.03,3.12
										c-0.69,0.74-1.68,1.1-2.97,1.1C601.18,491.86,600.18,491.49,599.5,490.75z M603.84,487.8v-9.16c0-1.1-0.46-1.65-1.37-1.65
										c-0.91,0-1.37,0.55-1.37,1.65v9.16c0,1.1,0.46,1.66,1.37,1.66C603.38,489.46,603.84,488.91,603.84,487.8z"/>
								</g>
							</g>
						</g>
					</g>
				</g>
				<g>
					<g>
						<g>
							<g>
								<g>
									<path class="st1" d="M608.25,474.83h3.98c1.36,0,2.35,0.32,2.97,0.95c0.62,0.63,0.94,1.6,0.94,2.91v0.67
										c0,0.86-0.14,1.57-0.42,2.11c-0.28,0.54-0.71,0.94-1.28,1.18v0.05c1.31,0.45,1.97,1.62,1.97,3.5v1.44
										c0,1.3-0.34,2.28-1.02,2.96c-0.68,0.68-1.67,1.02-2.99,1.02h-4.15V474.83z M611.92,481.66c0.53,0,0.92-0.14,1.19-0.41
										c0.26-0.27,0.4-0.73,0.4-1.37v-0.94c0-0.61-0.11-1.05-0.32-1.32c-0.22-0.27-0.56-0.41-1.02-0.41h-1.27v4.44H611.92z
										 M612.4,489.22c0.46,0,0.81-0.12,1.03-0.37c0.22-0.25,0.34-0.68,0.34-1.28v-1.46c0-0.77-0.13-1.3-0.4-1.59
										c-0.26-0.3-0.7-0.44-1.31-0.44h-1.18v5.16H612.4z"/>
								</g>
							</g>
						</g>
					</g>
				</g>
				<g>
					<g>
						<g>
							<g>
								<g>
									<path class="st1" d="M617.94,474.83h7.2v2.4h-4.56v4.44h3.62v2.4h-3.62v5.16h4.56v2.4h-7.2V474.83z"/>
								</g>
							</g>
						</g>
					</g>
				</g>
				<g>
					<g>
						<g>
							<g>
								<g>
									<path class="st1" d="M627.22,490.77c-0.66-0.73-0.98-1.77-0.98-3.13v-0.96h2.49v1.15c0,1.09,0.46,1.63,1.37,1.63
										c0.45,0,0.79-0.13,1.02-0.4c0.23-0.26,0.35-0.69,0.35-1.28c0-0.7-0.16-1.32-0.48-1.86c-0.32-0.54-0.91-1.18-1.78-1.93
										c-1.09-0.96-1.85-1.83-2.28-2.6c-0.43-0.78-0.65-1.65-0.65-2.63c0-1.33,0.34-2.35,1.01-3.08c0.67-0.73,1.65-1.09,2.93-1.09
										c1.26,0,2.22,0.36,2.87,1.09c0.65,0.73,0.97,1.77,0.97,3.13v0.7h-2.49v-0.86c0-0.58-0.11-0.99-0.34-1.26
										c-0.22-0.26-0.55-0.4-0.98-0.4c-0.88,0-1.32,0.54-1.32,1.61c0,0.61,0.16,1.18,0.49,1.7c0.33,0.53,0.92,1.17,1.79,1.92
										c1.1,0.96,1.86,1.83,2.28,2.61c0.42,0.78,0.62,1.7,0.62,2.76c0,1.38-0.34,2.43-1.02,3.17c-0.68,0.74-1.67,1.1-2.96,1.1
										C628.85,491.86,627.88,491.49,627.22,490.77z"/>
								</g>
							</g>
						</g>
					</g>
				</g>
				<g>
					<g>
						<g>
							<g>
								<g>
									<path class="st1" d="M635.62,474.83h2.64v16.79h-2.64V474.83z"/>
								</g>
							</g>
						</g>
					</g>
				</g>
				<g>
					<g>
						<g>
							<g>
								<g>
									<path class="st1" d="M642.28,477.23h-2.76v-2.4h8.16v2.4h-2.76v14.39h-2.64V477.23z"/>
								</g>
							</g>
						</g>
					</g>
				</g>
				<g>
					<g>
						<g>
							<g>
								<g>
									<path class="st1" d="M651.47,484.47l-3.19-9.64h2.81l1.8,6.16h0.05l1.8-6.16h2.57l-3.19,9.64v7.15h-2.64V484.47z"/>
								</g>
							</g>
						</g>
					</g>
				</g>
			</g>
			<g>
				<g>
					<g>
						<g>
							<g>
								<g>
									<path class="st1" d="M446.57,321.6h7.2v2.4h-4.56v4.44h3.62v2.4h-3.62v5.16h4.56v2.4h-7.2V321.6z"/>
								</g>
							</g>
						</g>
					</g>
				</g>
				<g>
					<g>
						<g>
							<g>
								<g>
									<path class="st1" d="M457.65,329.8l-2.9-8.2h2.78l1.78,5.42h0.05l1.82-5.42h2.49l-2.9,8.2l3.05,8.59h-2.78l-1.92-5.85
										h-0.05l-1.97,5.85h-2.49L457.65,329.8z"/>
								</g>
							</g>
						</g>
					</g>
				</g>
				<g>
					<g>
						<g>
							<g>
								<g>
									<path class="st1" d="M465.51,337.55c-0.66-0.72-1-1.74-1-3.05v-9.02c0-1.31,0.33-2.33,1-3.05
										c0.66-0.72,1.63-1.08,2.89-1.08c1.26,0,2.23,0.36,2.89,1.08c0.66,0.72,1,1.74,1,3.05v1.77h-2.49v-1.94
										c0-1.04-0.44-1.56-1.32-1.56c-0.88,0-1.32,0.52-1.32,1.56v9.38c0,1.02,0.44,1.54,1.32,1.54c0.88,0,1.32-0.51,1.32-1.54
										v-2.57h2.49v2.37c0,1.31-0.33,2.33-1,3.05c-0.66,0.72-1.63,1.08-2.89,1.08C467.13,338.63,466.17,338.27,465.51,337.55z"/>
								</g>
							</g>
						</g>
					</g>
				</g>
				<g>
					<g>
						<g>
							<g>
								<g>
									<path class="st1" d="M473.87,321.6h7.2v2.4h-4.56v4.44h3.62v2.4h-3.62v5.16h4.56v2.4h-7.2V321.6z"/>
								</g>
							</g>
						</g>
					</g>
				</g>
				<g>
					<g>
						<g>
							<g>
								<g>
									<path class="st1" d="M483.15,337.54c-0.66-0.73-0.98-1.77-0.98-3.13v-0.96h2.49v1.15c0,1.09,0.46,1.63,1.37,1.63
										c0.45,0,0.79-0.13,1.02-0.4c0.23-0.26,0.35-0.69,0.35-1.28c0-0.7-0.16-1.32-0.48-1.86c-0.32-0.54-0.91-1.18-1.78-1.93
										c-1.09-0.96-1.85-1.83-2.28-2.6c-0.43-0.78-0.65-1.65-0.65-2.63c0-1.33,0.34-2.35,1.01-3.08c0.67-0.73,1.65-1.09,2.93-1.09
										c1.26,0,2.22,0.36,2.87,1.09c0.65,0.73,0.97,1.77,0.97,3.13v0.7h-2.49v-0.86c0-0.58-0.11-1-0.34-1.26
										c-0.22-0.26-0.55-0.4-0.98-0.4c-0.88,0-1.32,0.54-1.32,1.61c0,0.61,0.16,1.18,0.49,1.7c0.33,0.53,0.92,1.17,1.79,1.92
										c1.1,0.96,1.86,1.83,2.28,2.61c0.42,0.78,0.62,1.7,0.62,2.76c0,1.38-0.34,2.43-1.02,3.17c-0.68,0.74-1.67,1.1-2.96,1.1
										C484.77,338.63,483.8,338.26,483.15,337.54z"/>
								</g>
							</g>
						</g>
					</g>
				</g>
				<g>
					<g>
						<g>
							<g>
								<g>
									<path class="st1" d="M492.07,337.54c-0.66-0.73-0.98-1.77-0.98-3.13v-0.96h2.49v1.15c0,1.09,0.46,1.63,1.37,1.63
										c0.45,0,0.79-0.13,1.02-0.4c0.23-0.26,0.35-0.69,0.35-1.28c0-0.7-0.16-1.32-0.48-1.86c-0.32-0.54-0.91-1.18-1.78-1.93
										c-1.09-0.96-1.85-1.83-2.28-2.6c-0.43-0.78-0.65-1.65-0.65-2.63c0-1.33,0.34-2.35,1.01-3.08c0.67-0.73,1.65-1.09,2.93-1.09
										c1.26,0,2.22,0.36,2.87,1.09c0.65,0.73,0.97,1.77,0.97,3.13v0.7h-2.49v-0.86c0-0.58-0.11-1-0.34-1.26
										c-0.22-0.26-0.55-0.4-0.98-0.4c-0.88,0-1.32,0.54-1.32,1.61c0,0.61,0.16,1.18,0.49,1.7c0.33,0.53,0.92,1.17,1.79,1.92
										c1.1,0.96,1.86,1.83,2.28,2.61c0.42,0.78,0.62,1.7,0.62,2.76c0,1.38-0.34,2.43-1.02,3.17c-0.68,0.74-1.67,1.1-2.96,1.1
										C493.69,338.63,492.73,338.26,492.07,337.54z"/>
								</g>
							</g>
						</g>
					</g>
				</g>
				<g>
					<g>
						<g>
							<g>
								<g>
									<path class="st1" d="M445.47,350.38h2.54l1.18,12.9h0.05l1.25-12.9h2.88l1.25,12.9h0.05l1.18-12.9h2.28l-1.7,16.79h-3.29
										l-1.2-11.32h-0.05l-1.2,11.32h-3.5L445.47,350.38z"/>
								</g>
							</g>
						</g>
					</g>
				</g>
				<g>
					<g>
						<g>
							<g>
								<g>
									<path class="st1" d="M459.45,350.38h7.2v2.4h-4.56v4.44h3.62v2.4h-3.62v5.16h4.56v2.4h-7.2V350.38z"/>
								</g>
							</g>
						</g>
					</g>
				</g>
				<g>
					<g>
						<g>
							<g>
								<g>
									<path class="st1" d="M468.16,350.38h2.64v16.79h-2.64V350.38z"/>
								</g>
							</g>
						</g>
					</g>
				</g>
				<g>
					<g>
						<g>
							<g>
								<g>
									<path class="st1" d="M473.58,366.32c-0.67-0.73-1.01-1.77-1.01-3.13v-8.83c0-1.36,0.34-2.4,1.01-3.13
										c0.67-0.73,1.65-1.09,2.93-1.09c1.28,0,2.26,0.36,2.93,1.09c0.67,0.73,1.01,1.77,1.01,3.13v1.44h-2.49v-1.61
										c0-1.1-0.46-1.65-1.37-1.65c-0.91,0-1.37,0.55-1.37,1.65v9.19c0,1.09,0.46,1.63,1.37,1.63c0.91,0,1.37-0.54,1.37-1.63
										v-3.29h-1.32v-2.4h3.81v5.49c0,1.36-0.34,2.4-1.01,3.13c-0.67,0.73-1.65,1.09-2.93,1.09
										C475.22,367.41,474.25,367.05,473.58,366.32z"/>
								</g>
							</g>
						</g>
					</g>
				</g>
				<g>
					<g>
						<g>
							<g>
								<g>
									<path class="st1" d="M482.14,350.38h2.64v6.84h2.83v-6.84h2.64v16.79h-2.64v-7.56h-2.83v7.56h-2.64V350.38z"/>
								</g>
							</g>
						</g>
					</g>
				</g>
				<g>
					<g>
						<g>
							<g>
								<g>
									<path class="st1" d="M494.28,352.78h-2.76v-2.4h8.16v2.4h-2.76v14.39h-2.64V352.78z"/>
								</g>
							</g>
						</g>
					</g>
				</g>
			</g>
			<g>
				<g>
					<g>
						<g>
							<g>
								<g>
									<path class="st1" d="M289.25,461.98c-0.67-0.73-1.01-1.77-1.01-3.13v-12.81h2.64v13c0,0.58,0.12,0.99,0.35,1.25
										c0.23,0.26,0.56,0.38,0.99,0.38c0.43,0,0.76-0.13,1-0.38c0.23-0.26,0.35-0.67,0.35-1.25v-13h2.54v12.81
										c0,1.36-0.34,2.4-1.01,3.13c-0.67,0.73-1.65,1.09-2.93,1.09C290.89,463.07,289.92,462.71,289.25,461.98z"/>
								</g>
							</g>
						</g>
					</g>
				</g>
				<g>
					<g>
						<g>
							<g>
								<g>
									<path class="st1" d="M297.98,446.05h3.31l2.57,10.05h0.05v-10.05h2.35v16.79h-2.71l-3.17-12.26h-0.05v12.26h-2.35V446.05z"
										/>
								</g>
							</g>
						</g>
					</g>
				</g>
				<g>
					<g>
						<g>
							<g>
								<g>
									<path class="st1" d="M308.22,446.05h4.03c1.31,0,2.29,0.35,2.95,1.05c0.66,0.7,0.98,1.74,0.98,3.09v8.49
										c0,1.36-0.33,2.39-0.98,3.09c-0.66,0.7-1.64,1.05-2.95,1.05h-4.03V446.05z M312.2,460.44c0.43,0,0.76-0.13,1-0.38
										c0.23-0.26,0.35-0.67,0.35-1.25v-8.73c0-0.58-0.12-0.99-0.35-1.25c-0.23-0.26-0.56-0.38-1-0.38h-1.34v11.99H312.2z"/>
								</g>
							</g>
						</g>
					</g>
				</g>
				<g>
					<g>
						<g>
							<g>
								<g>
									<path class="st1" d="M317.96,446.05h7.2v2.4h-4.56v4.44h3.62v2.4h-3.62v5.16h4.56v2.4h-7.2V446.05z"/>
								</g>
							</g>
						</g>
					</g>
				</g>
				<g>
					<g>
						<g>
							<g>
								<g>
									<path class="st1" d="M326.66,446.05h3.91c1.36,0,2.35,0.32,2.97,0.95c0.62,0.63,0.94,1.6,0.94,2.91v1.03
										c0,1.74-0.58,2.85-1.73,3.31v0.05c0.64,0.19,1.09,0.58,1.36,1.18c0.26,0.59,0.4,1.38,0.4,2.37v2.95
										c0,0.48,0.02,0.87,0.05,1.16c0.03,0.3,0.11,0.59,0.24,0.88h-2.69c-0.1-0.27-0.16-0.53-0.19-0.77
										c-0.03-0.24-0.05-0.67-0.05-1.3v-3.07c0-0.77-0.12-1.3-0.37-1.61c-0.25-0.3-0.68-0.46-1.28-0.46h-0.91v7.2h-2.64V446.05z
										 M330.26,453.24c0.53,0,0.92-0.14,1.19-0.41c0.26-0.27,0.4-0.73,0.4-1.37v-1.3c0-0.61-0.11-1.05-0.32-1.32
										c-0.22-0.27-0.56-0.41-1.02-0.41h-1.2v4.8H330.26z"/>
								</g>
							</g>
						</g>
					</g>
				</g>
				<g>
					<g>
						<g>
							<g>
								<g>
									<path class="st1" d="M284.28,474.83h2.54l1.18,12.9h0.05l1.25-12.9h2.88l1.25,12.9h0.05l1.18-12.9h2.28l-1.7,16.79h-3.29
										l-1.2-11.32h-0.05l-1.2,11.32h-3.5L284.28,474.83z"/>
								</g>
							</g>
						</g>
					</g>
				</g>
				<g>
					<g>
						<g>
							<g>
								<g>
									<path class="st1" d="M298.27,474.83h7.2v2.4h-4.56v4.44h3.62v2.4h-3.62v5.16h4.56v2.4h-7.2V474.83z"/>
								</g>
							</g>
						</g>
					</g>
				</g>
				<g>
					<g>
						<g>
							<g>
								<g>
									<path class="st1" d="M306.97,474.83h2.64v16.79h-2.64V474.83z"/>
								</g>
							</g>
						</g>
					</g>
				</g>
				<g>
					<g>
						<g>
							<g>
								<g>
									<path class="st1" d="M312.39,490.77c-0.67-0.73-1.01-1.77-1.01-3.13v-8.83c0-1.36,0.34-2.4,1.01-3.13
										c0.67-0.73,1.65-1.09,2.93-1.09c1.28,0,2.26,0.36,2.93,1.09c0.67,0.73,1.01,1.77,1.01,3.13v1.44h-2.49v-1.61
										c0-1.1-0.46-1.65-1.37-1.65c-0.91,0-1.37,0.55-1.37,1.65v9.19c0,1.09,0.46,1.63,1.37,1.63c0.91,0,1.37-0.54,1.37-1.63
										v-3.29h-1.32v-2.4h3.81v5.49c0,1.36-0.34,2.4-1.01,3.13c-0.67,0.73-1.65,1.09-2.93,1.09
										C314.04,491.86,313.06,491.49,312.39,490.77z"/>
								</g>
							</g>
						</g>
					</g>
				</g>
				<g>
					<g>
						<g>
							<g>
								<g>
									<path class="st1" d="M320.95,474.83h2.64v6.84h2.83v-6.84h2.64v16.79h-2.64v-7.56h-2.83v7.56h-2.64V474.83z"/>
								</g>
							</g>
						</g>
					</g>
				</g>
				<g>
					<g>
						<g>
							<g>
								<g>
									<path class="st1" d="M333.09,477.23h-2.76v-2.4h8.16v2.4h-2.76v14.39h-2.64V477.23z"/>
								</g>
							</g>
						</g>
					</g>
				</g>
			</g>
		</g>
		<g>
			<path class="st11" d="M346.01,188.56l0.31-21.92l-19.83,7.28l-4.27,14.64l-17.08,3.28c0,0-4.34,20.39,25.39,17.84
				c13.72-1.17,28.13-17.49,28.13-17.49L346.01,188.56z"/>
		</g>
		<g>
			<polygon class="st11" points="287.85,285.71 292.45,264.92 350.55,268.59 343.13,300.19 			"/>
		</g>
		<g>
			<path class="st11" d="M443.87,299.25c-1.34-1.48-5.53-7.12-5.53-7.12l-68.35-51.51l21.65-15.59l56.52,60.5
				c0,0,10.65,1.22,12.92,1.74c3.04,0.7,10.36,5.29,10.36,5.29c1.33,0.63,1.22,3.22-1.29,3.21c0,0-6.49-0.11-9.3-0.1
				c-5.25,0.02-9.83,1.19-11.13,1.55c-0.18,0.05-0.26,0.27-0.16,0.43l3.42,5.44c0.39,0.62,0.06,1.43-0.64,1.62l0,0
				c-0.83,0.22-1.72,0.08-2.44-0.39C449.89,304.32,445.45,300.99,443.87,299.25z"/>
		</g>
		<g>
			<path class="st11" d="M218.05,273.85l49.37-19.61l10.62-30.16l25.76,7.47c0,0-11.42,25.73-17.4,37.35
				c-3.05,5.92-8.55,7.86-15.18,8.52c-24.11,2.38-50.33,5.14-50.33,5.14L218.05,273.85z"/>
		</g>
		<g>
			<path class="st11" d="M143.38,385.8c0,0,6.42,10.89,17.76-1.01c0,0,42.66-50.76,47.28-76.94l24.39,8.53l30.84-33.84l-53.04-10.04
				c-10.61-1.28-20.92,4.12-25.91,13.57L143.38,385.8z"/>
		</g>
		<g>
			<path class="st11" d="M204.53,498.58c0,0,1.83,10.65,17.17,1.27c0,0,50.82-62.05,57.29-90.89c1.11-4.93,3.4-9.52,6.56-13.47
				l16.27-18.31L264.73,362L204.53,498.58z"/>
		</g>
		<g>
			<polygon class="st3" points="232.76,276.48 284.22,285.68 296.45,311.77 270.59,339.2 221.1,315.71 			"/>
		</g>
		<g>
			<path class="st2" d="M222.26,500.31l-1.12-0.92c0.51-0.62,50.78-62.25,57.15-90.59c1.1-4.91,3.42-9.66,6.7-13.76l16.3-18.34
				l1.08,0.96l-16.27,18.31c-3.12,3.9-5.34,8.46-6.4,13.15C273.26,437.79,224.34,497.77,222.26,500.31z"/>
		</g>
		<g>
			<path class="st3" d="M280.04,292l6.77-10.25l59.13,12.65c0,0,1.93,26.39-10,48.1c-9.41,17.12-34.34,40.98-34.34,40.98
				l-41.19-20.85l15.36-43.09L280.04,292z"/>
		</g>
		<g>
			<g>
				<g>
					<path class="st2" d="M232.39,517.19h-61.28c-0.07-0.73-0.22-2.96,0.25-5.31c0.02-0.05,60.17,0.34,60.17,0.34L232.39,517.19z"/>
				</g>
			</g>
			<g>
				<g>
					<path class="st2" d="M231.53,512.22l-60.15-0.39c0.58-6.23,8.39-9.15,15.69-11.01c0.49-0.12,0.97-0.23,1.45-0.36
						c1.05-0.25,2.07-0.47,3.04-0.69c0.5-0.11,1-0.22,1.46-0.32c2.52-0.57,4.61-1.05,5.82-1.61c1.08-0.52,2.4-1.27,3.54-1.96
						c0.39-0.23,0.75-0.47,1.08-0.68c1.08-0.68,1.86-1.19,1.86-1.19c3.94,1.29,9.87,4.99,22.88-0.9l0.39,2.26l0.22,1.28
						L231.53,512.22z"/>
				</g>
			</g>
			<g>
				<g>
					<g>
						<g>
							<path class="st1" d="M188.52,500.46c-0.91,2.1-1.01,4.37-1.01,4.39l-1.23-0.05c0.01-0.12,0.09-1.97,0.79-3.99
								C187.56,500.69,188.04,500.58,188.52,500.46z"/>
						</g>
					</g>
				</g>
				<g>
					<g>
						<g>
							<path class="st1" d="M193.02,499.45c-1.01,2.18-1.11,4.59-1.11,4.61l-1.23-0.04c0-0.14,0.09-2.14,0.87-4.26
								C192.06,499.66,192.55,499.55,193.02,499.45z"/>
						</g>
					</g>
				</g>
			</g>
			<g>
				<g>
					<g>
						<path class="st1" d="M228.82,496.66c-5.36,2.67-9.95,3.59-13.75,3.59c-7.02,0-11.32-3.17-12.68-4.37
							c0.39-0.23,0.75-0.47,1.08-0.68c2.29,1.96,10.67,7.54,25.13,0.17L228.82,496.66z"/>
					</g>
				</g>
			</g>
			<g>
				<g>
					<rect x="171.38" y="511.16" class="st1" width="60.15" height="1.34"/>
				</g>
			</g>
		</g>
		<g>
			<g>
				<g>
					<path class="st2" d="M168.63,408.53l-61.27-1.03c-0.06-0.73-0.17-2.97,0.33-5.31c0.03-0.05,60.16,1.35,60.16,1.35
						L168.63,408.53z"/>
				</g>
			</g>
			<g>
				<g>
					<path class="st2" d="M167.85,403.54l-60.13-1.4c0.68-6.21,8.54-9.01,15.87-10.75c0.49-0.11,0.98-0.22,1.46-0.33
						c1.05-0.23,2.07-0.43,3.05-0.64c0.51-0.1,1-0.2,1.47-0.3c2.53-0.52,4.63-0.97,5.85-1.51c1.09-0.5,2.42-1.23,3.58-1.9
						c0.4-0.23,0.76-0.45,1.09-0.66c1.09-0.66,1.88-1.16,1.88-1.16c3.91,1.36,9.78,5.16,22.89-0.52l0.36,2.27l0.2,1.28
						L167.85,403.54z"/>
				</g>
			</g>
			<g>
				<g>
					<g>
						<g>
							<path class="st1" d="M125.05,391.06c-0.95,2.09-1.08,4.35-1.08,4.37l-1.23-0.07c0.01-0.12,0.12-1.97,0.85-3.97
								C124.08,391.28,124.56,391.18,125.05,391.06z"/>
						</g>
					</g>
				</g>
				<g>
					<g>
						<g>
							<path class="st1" d="M129.56,390.13c-1.05,2.16-1.18,4.57-1.18,4.59l-1.23-0.06c0-0.14,0.12-2.14,0.94-4.24
								C128.6,390.32,129.1,390.22,129.56,390.13z"/>
						</g>
					</g>
				</g>
			</g>
			<g>
				<g>
					<g>
						<path class="st1" d="M165.41,387.94c-5.41,2.58-10.01,3.43-13.81,3.36c-7.02-0.12-11.26-3.36-12.61-4.58
							c0.4-0.23,0.76-0.45,1.09-0.66c2.26,1.99,10.54,7.72,25.13,0.59L165.41,387.94z"/>
					</g>
				</g>
			</g>
			<g>
				<g>
					
						<rect x="136.87" y="372.82" transform="matrix(0.0167 -0.9999 0.9999 0.0167 -267.348 533.4213)" class="st1" width="1.34" height="59.64"/>
				</g>
			</g>
		</g>
		<g>
			<path class="st12" d="M268.1,244.13l24.91,1.69l4.12-52.16c0,0-9.41,3.89-13.19,10.95C278.53,214.72,268.1,244.13,268.1,244.13z"
				/>
		</g>
		<g>
			<g>
				
					<rect x="278.62" y="229.21" transform="matrix(0.0391 -0.9992 0.9992 0.0391 29.6885 509.0447)" class="st13" width="1.8" height="19.74"/>
			</g>
		</g>
		<g>
			<path class="st12" d="M363.85,194.82l-1.73,42.6l-0.12,3.06l-4.81,16.52l-4.24,14.53l-64.28-4.42l-1.63-21.54l-0.88-11.67
				l1.95-7.14l9.03-33.11l12.24-2.65c0,0,2.71,10.78,14.3,11.12c16.08,0.46,26.91-12.52,26.91-12.52L363.85,194.82z"/>
		</g>
		<g>
			<path class="st14" d="M360.58,245.33l-3.4,11.67c-9.56-3.76-19.51-6.52-29.63-8.21c-4.31-0.71-8.66-1.24-12.99-1.76
				c-2.93-0.35-5.87-0.71-8.8-1.06c-6.22-0.75-12.59-1.49-18.72-0.39l-0.22-10.32l1.04-3.6c0,0,12.32-5.36,27.31-2.71
				c8.83,1.57,18.4,4.46,27.68,8.15C348.97,239.54,354.98,242.33,360.58,245.33z"/>
		</g>
		<g>
			<path class="st12" d="M348,238.7l23.14,12.4l28.98-24c0,0-15.15-19.65-28.98-29.9c-4.59-3.4-20.89-7.58-20.89-7.58L348,238.7z"/>
		</g>
		<g>
			<path class="st11" d="M350.97,161.45c-2.67,12.74-13.19,22.12-25.03,21.44c-12.81-0.74-14.65-12.8-11.18-29.35
				c2.67-12.74,12.3-19.88,22.65-17.71C347.77,138,353.65,148.71,350.97,161.45z"/>
		</g>
		<g>
			<path class="st2" d="M346.47,172.07c0,0,8.95-2.27,12.35-15.85c3.4-13.58-6.56-26.69-15.03-27.64c-8.47-0.95-16.9,2.49-16.9,2.49
				s-6.64,23.05,19.74,29.17L346.47,172.07z"/>
		</g>
		<g>
			<path class="st2" d="M369.3,140.36c-1.16,5.52-5.86,9.21-10.51,8.24c-4.64-0.97-7.47-6.24-6.31-11.76
				c1.16-5.52,5.86-9.21,10.51-8.24C367.63,129.57,370.46,134.83,369.3,140.36z"/>
		</g>
		<g>
			<path class="st2" d="M362.75,133.55c1.44,4.59-0.52,9.3-4.38,10.51c-3.86,1.21-8.16-1.53-9.6-6.12
				c-1.44-4.59,0.52-9.3,4.38-10.51C357.01,126.21,361.31,128.95,362.75,133.55z"/>
		</g>
		<g>
			<path class="st2" d="M256.87,396.15c-4.64-0.71-6.53-4.37-6.61-4.53l1.29-0.65c0.07,0.13,1.65,3.16,5.53,3.75L256.87,396.15z"/>
		</g>
		<g>
			<g>
				
					<rect x="248.57" y="290.54" transform="matrix(0.3837 -0.9234 0.9234 0.3837 -139.2735 425.9238)" class="st4" width="1.8" height="53.54"/>
			</g>
		</g>
		<g>
			<g>
				<path class="st4" d="M292.82,379.32l-1.3-1.24c0.31-0.33,31.24-32.95,39.47-58.81l1.71,0.54
					C324.35,346.07,293.14,378.99,292.82,379.32z"/>
			</g>
		</g>
		<g>
			<polygon class="st2" points="284.56,286.48 210.48,273.23 210.73,271.8 283.87,284.89 286.21,281.35 287.42,282.15 			"/>
		</g>
		<g>
			<g>
				<path class="st4" d="M336.16,299.81c-29.23-1.48-41.57-8.06-42.08-8.34l0.86-1.58c0.12,0.07,12.56,6.67,41.31,8.12
					L336.16,299.81z"/>
			</g>
		</g>
		<g>
			<path class="st2" d="M327.24,183.55c-4.01,0-6.71-1.12-6.76-1.14l0.57-1.33c0.39,0.17,9.79,4.01,19.49-3.91l0.92,1.12
				C336.31,182.48,331.15,183.55,327.24,183.55z"/>
		</g>
		<g>
			<path class="st2" d="M287.94,267.17l-1.77-23.35c-0.5-6.56,0.47-13.27,2.8-19.42l4.85-12.82l1.36,0.51l-4.85,12.82
				c-2.25,5.95-3.19,12.45-2.71,18.8l1.77,23.35L287.94,267.17z"/>
		</g>
		<g>
			<g>
				
					<rect x="361.06" y="234.36" transform="matrix(0.7574 -0.6529 0.6529 0.7574 -61.1741 305.8553)" class="st13" width="39.95" height="1.8"/>
			</g>
		</g>
		<g>
			
				<rect x="358.85" y="231.77" transform="matrix(0.4724 -0.8814 0.8814 0.4724 -26.1432 446.13)" class="st2" width="1.45" height="26.25"/>
		</g>
		<g>
			<path class="st2" d="M161.7,387.05l-1.12-0.92c0.43-0.51,42.59-51.81,47.12-77.5l0.14-0.8l14.32,4.34l-0.42,1.39l-12.76-3.87
				C203.7,335.96,163.43,384.96,161.7,387.05z"/>
		</g>
		<g>
			<path class="st2" d="M302.06,384.04l-0.9-1.14c0.5-0.4,50.32-40.41,44.07-88.41l1.44-0.19
				C353.02,343.13,302.57,383.64,302.06,384.04z"/>
		</g>
		<g>
			
				<rect x="245.23" y="340.36" transform="matrix(0.3358 -0.9419 0.9419 0.3358 -143.2075 479.0644)" class="st2" width="45.74" height="1.45"/>
		</g>
		<g>
			<path class="st2" d="M347.08,131.77l-1.36-0.5c0.07-0.18,1.71-4.53,5.44-5.54c2.34-0.63,4.92,0.19,7.66,2.46l-0.92,1.12
				c-2.35-1.94-4.49-2.67-6.35-2.18C348.53,127.94,347.09,131.73,347.08,131.77z"/>
		</g>
		<g>
			<path class="st2" d="M343.98,160.88c-7.25-0.34-12.55-2.72-15.76-7.09c-5.52-7.52-2.81-18.09-2.69-18.53l1.4,0.37
				c-0.03,0.1-2.64,10.36,2.47,17.31c2.93,3.99,7.86,6.18,14.65,6.49L343.98,160.88z"/>
		</g>
		<g>
			
				<ellipse transform="matrix(0.2054 -0.9787 0.9787 0.2054 115.1776 466.6359)" class="st11" cx="344.94" cy="162.39" rx="5.21" ry="4.63"/>
		</g>
		<g>
			<g>
				<g>
					<path class="st14" d="M621.33,402.57l9.31,7.93l3.91,3.34l14.56,4.6l8.03-25.77l6.7-21.48l-32.1-33.03l-15.06,48.34
						C614.87,392.3,616.7,398.62,621.33,402.57z"/>
				</g>
				<g>
					<g>
						
							<rect x="632.51" y="379.29" transform="matrix(0.537 -0.8436 0.8436 0.537 -44.0914 719.5273)" class="st10" width="1.93" height="41.29"/>
					</g>
					<g>
						
							<rect x="629.53" y="366.13" transform="matrix(0.5367 -0.8438 0.8438 0.5367 -25.5903 706.4002)" class="st10" width="1.93" height="20.74"/>
					</g>
					<g>
						<g>
							
								<rect x="643.89" y="343.46" transform="matrix(0.537 -0.8436 0.8436 0.537 -8.5938 712.563)" class="st10" width="1.93" height="41.29"/>
						</g>
					</g>
				</g>
			</g>
			<g>
				<g>
					<path class="st15" d="M618.19,398.87c0.82,1.37,1.87,2.62,3.13,3.69l9.31,7.93l3.91,3.34L649.98,427
						c7.43,6.35,18.2,6.97,26.32,1.51l65.16-43.79l16.96-11.39l-8.74-8.8l-3.2-3.23c-9.08-9.16-22.95-11.23-34.19-5.49l-1.97,1.32
						l-53.27,35.79l-11.9,8c-0.74,0.49-1.5,0.94-2.27,1.33c-7.78,3.96-17.28,2.93-24.05-2.84L618.19,398.87z"/>
				</g>
			</g>
			<g>
				<g>
					<path class="st14" d="M710.05,461.94c-3.83,9.44-1.25,20.27,6.45,26.94l9.27,8.03l10.16,8.81l8.61-21.18l29.67-72.93
						c3.92-9.64,1.7-20.68-5.63-28.06l-10.16-10.22l-8.74-8.8l-3.2-3.23c-3.75-3.79-8.34-6.37-13.22-7.68l2.46,2.47
						c7.33,7.38,9.55,18.42,5.63,28.06L710.05,461.94z"/>
				</g>
			</g>
			<g>
				<g>
					<path class="st15" d="M711.88,483.46c1.24,2,2.78,3.83,4.62,5.42l9.27,8.03l10.16,8.81l5.3,4.6c9.47,8.21,23.09,9.58,34,3.41
						l77.69-43.88l-28.78-29.61l-79.94,45.14l-0.1,0.05c-1.71,0.97-3.49,1.75-5.31,2.34C729.72,490.78,719.66,489.23,711.88,483.46z
						"/>
				</g>
			</g>
			<g>
				<g>
					<g>
						
							<rect x="830.51" y="437.26" transform="matrix(0.7171 -0.6969 0.6969 0.7171 -76.8883 706.1695)" class="st10" width="1.93" height="21.09"/>
					</g>
				</g>
				<g>
					
						<rect x="821.17" y="443.61" transform="matrix(0.7171 -0.697 0.697 0.7171 -90.9843 704.3658)" class="st10" width="1.93" height="41.29"/>
				</g>
				<g>
					
						<rect x="797.59" y="455.74" transform="matrix(0.7171 -0.697 0.697 0.7171 -98.9123 688.4427)" class="st10" width="1.93" height="20.65"/>
				</g>
				<g>
					
						<rect x="788.4" y="462.02" transform="matrix(0.7171 -0.697 0.697 0.7171 -113.0836 686.7489)" class="st10" width="1.93" height="41.29"/>
				</g>
				<g>
					
						<rect x="764.86" y="474.13" transform="matrix(0.7173 -0.6968 0.6968 0.7173 -121.0872 670.5558)" class="st10" width="1.93" height="20.74"/>
				</g>
				<g>
					<g>
						
							<rect x="755.63" y="480.43" transform="matrix(0.7171 -0.697 0.697 0.7171 -135.189 669.1038)" class="st10" width="1.93" height="41.29"/>
					</g>
				</g>
			</g>
			<g>
				<g>
					<g>
						
							<rect x="725.03" y="349.72" transform="matrix(0.6768 -0.7362 0.7362 0.6768 -30.5772 650.8779)" class="st10" width="1.93" height="21.09"/>
					</g>
				</g>
				<g>
					
						<rect x="716.63" y="356.57" transform="matrix(0.6767 -0.7362 0.7362 0.6767 -45.7494 650.2361)" class="st10" width="1.93" height="41.29"/>
				</g>
				<g>
					
						<rect x="693.19" y="370.02" transform="matrix(0.6768 -0.7362 0.7362 0.6768 -55.6379 633.9623)" class="st10" width="1.93" height="20.65"/>
				</g>
				<g>
					
						<rect x="684.95" y="376.79" transform="matrix(0.6768 -0.7362 0.7362 0.6768 -70.8794 633.4487)" class="st10" width="1.93" height="41.29"/>
				</g>
				<g>
					
						<rect x="661.54" y="390.22" transform="matrix(0.677 -0.736 0.736 0.677 -80.8312 617.0207)" class="st10" width="1.93" height="20.74"/>
				</g>
				<g>
					<g>
						
							<rect x="653.26" y="397.02" transform="matrix(0.6767 -0.7362 0.7362 0.6767 -96.0084 616.6636)" class="st10" width="1.93" height="41.29"/>
					</g>
				</g>
			</g>
			<g>
				<g>
					<g>
						
							<rect x="717.44" y="462.44" transform="matrix(0.5804 -0.8143 0.8143 0.5804 -83.7357 783.4615)" class="st10" width="1.93" height="21.09"/>
					</g>
				</g>
				<g>
					
						<rect x="732.29" y="440.62" transform="matrix(0.5805 -0.8143 0.8143 0.5805 -67.9788 790.593)" class="st10" width="1.93" height="41.29"/>
				</g>
				<g>
					
						<rect x="730.5" y="427.36" transform="matrix(0.5805 -0.8143 0.8143 0.5805 -49.5226 779.2532)" class="st10" width="1.93" height="20.65"/>
				</g>
				<g>
					
						<rect x="745.53" y="405.44" transform="matrix(0.5805 -0.8143 0.8143 0.5805 -33.7786 786.6179)" class="st10" width="1.93" height="41.29"/>
				</g>
				<g>
					
						<rect x="743.78" y="392.17" transform="matrix(0.5802 -0.8145 0.8145 0.5802 -15.2128 775.5602)" class="st10" width="1.93" height="20.74"/>
				</g>
				<g>
					<g>
						
							<rect x="758.77" y="370.27" transform="matrix(0.5805 -0.8143 0.8143 0.5805 0.4189 782.6392)" class="st10" width="1.93" height="41.29"/>
					</g>
				</g>
			</g>
			<g>
				<g>
					<path class="st10" d="M664.15,433.18c-5.3,0-10.58-1.83-14.8-5.44l1.25-1.47c7.08,6.05,17.42,6.64,25.15,1.45l43.02-28.91
						l1.08,1.6l-43.02,28.91C673,431.9,668.57,433.18,664.15,433.18z"/>
				</g>
			</g>
		</g>
		<g>
			<g>
				<g>
					<g>
						<g>
							<rect x="706.52" y="515.43" class="st2" width="132.62" height="2.14"/>
						</g>
					</g>
				</g>
			</g>
		</g>
		<g>
			
				<rect x="631.3" y="403.48" transform="matrix(0.6433 -0.7657 0.7657 0.6433 -90.3348 631.2854)" class="st10" width="1.93" height="18.21"/>
		</g>
		<g>
			
				<rect x="763.83" y="492.02" transform="matrix(0.8738 -0.4862 0.4862 0.8738 -137.333 456.7105)" class="st10" width="95.09" height="1.93"/>
		</g>
		<g>
			<g>
				<path class="st3" d="M723.91,286.22l-31.17,24.85l-30.48-25.63c-22.68-23.5,8.12-53.75,31.21-30.66
					C717.06,232.02,747.44,263.11,723.91,286.22z"/>
			</g>
			<g>
				<g>
					<g>
						<path class="st2" d="M733.13,268.37l-1.45-0.02c0.13-8.15-4.87-15.83-12.44-19.12c-8.31-3.61-17.52-1.4-25.25,6.07l-0.51,0.49
							l-0.5-0.5c-11.62-11.62-24.65-9.2-31.85-2.04l-1.02-1.03c7.58-7.54,21.2-10.2,33.39,1.55c7.97-7.39,17.76-9.59,26.32-5.87
							C727.91,251.42,733.26,259.64,733.13,268.37z"/>
					</g>
					<g>
						
							<rect x="699.63" y="293.99" transform="matrix(0.782 -0.6233 0.6233 0.782 -28.2043 508.7937)" class="st2" width="27.25" height="1.45"/>
					</g>
				</g>
			</g>
			<g>
				<polygon class="st1" points="684.5,304.58 676.88,279.53 653.34,279.53 653.34,277.38 678.47,277.38 684.26,296.42 
					692.85,260.69 698.31,277.38 734.96,277.38 734.96,279.53 696.75,279.53 693.17,268.56 				"/>
			</g>
		</g>
	</g>
</g>
</svg>
